HIERARCHY
ROOT Hips
{
     OFFSET 1.88212 96.90440 -13.34250
     CHANNELS 6 Xposition Yposition Zposition Zrotation Xrotation Yrotation
     JOINT Spine
     {
          OFFSET 0.00000 11.89050 0.00000
          CHANNELS 3 Zrotation Xrotation Yrotation
          JOINT Spine1
          {
               OFFSET -0.00000 25.65740 0.12766
               CHANNELS 3 Zrotation Xrotation Yrotation
               JOINT HEad
               {
                    OFFSET 0.00000 8.73416 0.01134
                    CHANNELS 3 Zrotation Xrotation Yrotation
                    End Site
                    {
                         OFFSET -0.29000 12.77420 2.51395
                    }
               }
               JOINT LeftShoulder1
               {
                    OFFSET 8.99000 -0.36225 -0.22000
                    CHANNELS 3 Zrotation Xrotation Yrotation
                    JOINT LeftArm
                    {
                         OFFSET 10.28270 -0.00338 0.32212
                         CHANNELS 3 Zrotation Xrotation Yrotation
                         JOINT LeftForeArm
                         {
                              OFFSET 32.76690 0.09914 -1.42434
                              CHANNELS 3 Zrotation Xrotation Yrotation
                              JOINT LeftHand
                              {
                                   OFFSET 27.56430 0.08536 1.02216
                                   CHANNELS 3 Zrotation Xrotation Yrotation
                                   End Site
                                   {
                                        OFFSET 16.74430 -0.60000 1.50291
                                   }
                              }
                         }
                    }
               }
               JOINT RightShoulder
               {
                    OFFSET -8.99000 -0.36225 -0.22000
                    CHANNELS 3 Zrotation Xrotation Yrotation
                    JOINT RightArm
                    {
                         OFFSET -10.28270 -0.00338 0.32212
                         CHANNELS 3 Zrotation Xrotation Yrotation
                         JOINT RightForeArm
                         {
                              OFFSET -32.89710 0.09914 -1.42434
                              CHANNELS 3 Zrotation Xrotation Yrotation
                              JOINT RightHand
                              {
                                   OFFSET -27.49210 0.08536 1.02216
                                   CHANNELS 3 Zrotation Xrotation Yrotation
                                   End Site
                                   {
                                        OFFSET -16.63120 -0.60000 1.50291
                                   }
                              }
                         }
                    }
               }
          }
     }
     JOINT LeftUpLeg
     {
          OFFSET 8.94580 -8.66707 0.10165
          CHANNELS 3 Zrotation Xrotation Yrotation
          JOINT LeftLeg
          {
               OFFSET 0.00000 -44.42270 1.37270
               CHANNELS 3 Zrotation Xrotation Yrotation
               JOINT LeftFoot
               {
                    OFFSET -0.25355 -42.09240 -1.46059
                    CHANNELS 3 Zrotation Xrotation Yrotation
                    JOINT LeftToes
                    {
                         OFFSET -0.04000 -4.41509 8.49910
                         CHANNELS 3 Zrotation Xrotation Yrotation
                         End Site
                         {
                              OFFSET 0.08000 -0.04745 9.77979
                         }
                    }
               }
          }
     }
     JOINT RightUpLeg
     {
          OFFSET -8.94580 -8.66707 0.10165
          CHANNELS 3 Zrotation Xrotation Yrotation
          JOINT RightLeg
          {
               OFFSET 0.00000 -44.42270 1.37270
               CHANNELS 3 Zrotation Xrotation Yrotation
               JOINT RightFoot
               {
                    OFFSET 0.25355 -42.09240 -1.46059
                    CHANNELS 3 Zrotation Xrotation Yrotation
                    JOINT RightToes
                    {
                         OFFSET 0.04000 -4.41509 8.49910
                         CHANNELS 3 Zrotation Xrotation Yrotation
                         End Site
                         {
                              OFFSET -0.08000 -0.13745 9.77979
                         }
                    }
               }
          }
     }
}
MOTION
Frames: 13
Frame Time: 0.01667
45.27001 91.88129 -121.02432 -3.90026 -3.09778 -20.83019 9.25130 18.58842 7.22819 0.02505 0.07027 -0.03851 -16.38206 7.92689 20.56556 11.58223 22.86717 -13.18634 -23.37504 -72.56370 26.17447 -48.10454 66.99557 -109.47576 2.89835 6.35553 5.38977 28.97716 18.52312 -12.84932 65.08376 -23.29013 69.53559 26.62300 45.19161 106.49429 -14.39307 7.63956 -6.13384 16.77420 -16.98747 2.63055 0.13217 14.70572 -2.81351 -1.22913 -0.00196 0.00037 -10.77229 -1.30268 2.39426 -13.20017 5.61322 8.71282 12.36521 19.12389 -12.80295 -16.47050 -0.00153 -0.01076 13.51829 -30.07601 -8.18856 
46.04417 91.07853 -122.09572 -1.67895 -1.97418 -24.44931 7.66317 23.21132 7.42656 0.01923 0.06829 -0.02397 -13.89317 4.51655 19.51780 8.07391 19.38117 -9.58948 -8.66062 -63.76535 37.72100 -50.58862 67.18211 -106.27930 12.04396 7.45934 -6.49252 33.21645 22.70971 -18.33031 65.86652 -21.30760 76.11336 24.39418 48.10675 111.62482 -1.18484 7.96337 3.32632 15.13410 -20.93224 5.35177 1.97253 18.03440 -1.90582 -1.45226 -0.00221 0.00024 -11.23919 -1.46636 2.32945 -14.91588 -0.23780 8.13742 11.08737 23.73155 -9.47431 -18.28099 -0.00268 -0.01349 16.40535 -30.08476 -8.25955 
46.97683 90.17630 -123.35265 1.57331 -0.43790 -29.16187 4.59719 27.31174 8.32437 0.01665 0.06066 -0.01817 -10.75487 1.31216 19.14967 9.71085 25.51172 -11.96306 4.58686 -69.02450 53.58438 -51.97659 67.44428 -105.25979 13.65193 7.83583 -10.40969 28.94155 20.01288 -12.33088 66.95306 -22.22617 72.39187 27.13346 47.07830 108.49419 -18.82104 9.48990 -12.07648 13.99661 -25.37037 9.59719 3.91463 21.31787 -1.24846 -1.81947 -0.00096 -0.00110 -11.54104 -1.76527 2.29562 -16.86096 -8.20235 7.40940 8.98863 29.21685 -5.06020 -20.09007 -0.00386 -0.01505 18.94833 -30.92168 -7.75126 
48.04921 89.26794 -124.70970 4.40155 0.66101 -33.28168 1.86559 31.80987 7.94579 0.01496 0.05693 -0.01426 -7.05545 -1.31888 19.58126 5.06571 20.50941 -6.32509 8.18596 -64.97029 56.16335 -53.22323 67.57017 -104.71955 17.11299 7.96196 -13.89143 25.20590 17.05552 -6.57417 67.34496 -22.57354 69.68864 27.98137 47.34159 108.25272 -0.22619 6.71116 -4.25556 13.47951 -29.42747 13.25116 5.86087 24.42129 -0.78488 -2.20476 0.00080 -0.00190 -12.28879 -2.88753 2.01507 -18.08794 -16.33590 5.36233 5.63418 35.27171 0.78294 -21.96840 -0.00376 -0.01677 22.69160 -30.97886 -7.20452 
49.23809 88.29583 -126.08095 6.81270 1.45691 -36.83357 -0.41109 36.66901 6.92137 0.01376 0.05530 -0.00653 -3.87794 -4.28695 20.85797 1.22678 15.12780 -1.50174 21.17904 -63.80802 67.48079 -65.10904 69.63934 -93.97110 16.64653 7.99860 -13.80314 21.99883 13.65196 -1.05044 67.32575 -22.83408 67.89218 28.29651 47.62835 108.56331 -11.45092 9.86946 -6.37948 13.40945 -33.16752 16.40532 7.78562 27.29573 -0.51477 -2.55632 0.00192 -0.00172 -12.70073 -3.33859 1.97871 -18.78355 -24.48385 2.21478 0.46491 41.51806 8.49648 -23.97124 -0.00217 -0.01912 25.64181 -32.01375 -6.55837 
50.50591 87.32987 -127.39989 8.82136 2.01846 -39.83453 -2.13700 41.83915 5.39294 0.01169 0.05204 0.00295 -1.15873 -7.46603 22.75046 -1.80909 9.49750 2.69601 30.24792 -63.08406 75.67217 -74.43665 70.37206 -85.48814 17.46836 8.00249 -14.45983 19.40007 9.89525 3.98655 67.03185 -22.92466 66.66821 27.95937 48.25226 109.54610 -1.03026 8.63968 -2.41858 13.64354 -36.60853 19.11004 9.65175 29.90027 -0.42213 -2.83334 0.00255 -0.00117 -13.18736 -3.64743 1.94314 -19.21825 -31.78354 -0.94816 -5.95082 46.76896 17.08956 -26.14611 0.00073 -0.02006 28.83730 -32.89455 -5.76663 
51.79552 86.32623 -128.58328 10.45479 2.40903 -42.30040 -3.34257 46.86190 3.53332 0.00442 0.05523 0.01768 1.29083 -10.41255 25.03663 -4.14836 4.15563 6.27329 37.16216 -62.77769 82.14083 -81.29303 70.29801 -79.32167 16.10475 7.95868 -13.31516 17.23355 6.22129 8.44796 66.80507 -23.03395 65.98673 27.67736 48.66033 110.39563 -8.38373 10.07893 -4.08579 14.05411 -39.76033 21.41371 11.48020 32.20895 -0.52098 -3.03808 0.00283 -0.00076 -13.85996 -3.92819 1.81178 -19.45259 -38.13387 -4.07367 -13.46728 50.79019 26.41336 -28.44968 0.00330 -0.01899 31.87935 -33.76249 -5.12195 
53.02385 85.25008 -129.56117 11.75690 2.67820 -44.24855 -4.25202 50.55122 1.78173 -0.01491 -0.03861 0.02776 3.62905 -11.88610 27.25530 -5.72402 0.37599 9.19025 42.69664 -62.73503 87.44953 -86.06126 69.70586 -75.17934 15.59453 7.98980 -12.94322 15.68756 3.76410 11.77924 66.65952 -23.02913 65.62162 27.20280 49.07535 111.34146 -2.39089 9.32668 -1.71059 14.52346 -42.62691 23.33916 13.30815 34.25950 -0.86066 -3.20061 0.00230 -0.00038 -14.38852 -4.05119 1.97939 -19.58082 -43.47580 -7.13942 -21.61401 53.48312 36.01039 -30.81316 0.00489 -0.01664 34.54093 -34.82145 -4.48334 
54.13027 84.11015 -130.31413 12.78658 2.85969 -45.70432 -4.91374 53.09348 0.24148 -0.01700 -0.03469 0.02560 5.68469 -12.35361 29.15857 -6.81890 -2.18466 11.49254 47.42078 -62.83473 92.04855 -89.33125 68.83717 -72.47481 14.02454 7.99095 -11.46305 14.44349 2.18214 14.18695 66.61856 -22.94458 65.57526 26.84540 49.17952 112.06248 -6.90277 10.11284 -2.77484 14.95066 -45.21537 24.88926 15.14762 36.11847 -1.44420 -3.35236 0.00131 -0.00029 -14.83920 -3.67414 2.06073 -19.66886 -47.81163 -10.10403 -30.15294 54.67439 45.53938 -30.05999 -0.00014 0.00647 33.99178 -36.15428 -3.75979 
55.08131 82.91098 -130.85275 13.59142 2.97391 -46.69962 -5.37088 54.67225 -1.04084 -0.01577 -0.02661 0.02204 7.37948 -12.00839 30.60824 -7.53166 -3.61908 13.22888 51.51025 -62.99656 96.09508 -91.50446 67.84559 -70.81925 13.06132 8.13278 -10.68152 13.54547 1.44529 15.79148 66.57980 -22.81696 65.74102 26.61450 49.31039 112.66278 -3.30368 9.32783 -1.09039 15.25612 -47.53846 26.05719 17.00303 37.84730 -2.25273 -3.51196 0.00044 -0.00033 -15.44303 -4.08086 2.05412 -19.80820 -51.20214 -12.94852 -37.76229 54.89600 53.83154 -29.34382 0.00025 0.00742 33.28804 -37.13105 -3.19585 
55.84653 81.65910 -131.21739 14.20396 3.03485 -47.27497 -5.67970 55.46438 -2.01199 -0.01473 -0.01833 0.01970 7.59610 -11.70224 32.24033 -8.00692 -4.11232 14.57233 54.86308 -63.34765 99.46609 -92.93880 66.88591 -69.82961 11.65865 7.96464 -9.28608 12.77999 1.40828 16.75065 66.64021 -22.75838 66.11485 26.62687 49.31400 113.03272 -5.95044 9.82706 -1.81992 15.40345 -49.61774 26.86107 18.90501 39.49919 -3.28445 -3.70764 -0.00031 -0.00058 -16.18101 -4.20296 1.78948 -20.04676 -53.75041 -15.65175 -44.22030 54.46575 60.66107 -28.57740 0.00018 0.00701 32.60986 -37.89877 -2.54163 
56.41373 80.35362 -131.43814 14.65010 3.05530 -47.47447 -5.88690 55.61737 -2.66659 -0.01382 -0.01116 0.01605 6.63052 -11.67719 34.00895 -8.31162 -3.89140 15.40796 57.61831 -63.76146 102.32808 -93.65041 66.05756 -69.45216 10.80249 8.13133 -8.45857 12.31102 1.90573 17.12128 66.59601 -22.64915 66.56241 26.71808 49.33217 113.27071 -3.73490 9.38778 -0.81117 15.38889 -51.49122 27.33153 20.87976 41.12559 -4.54504 -3.94959 -0.00099 -0.00093 -16.92609 -4.88976 1.43840 -19.76672 -55.33817 -16.56090 -48.58410 54.20058 64.48515 -27.65713 -0.00064 0.00709 31.85416 -38.75605 -1.84523 
56.77437 79.09369 -131.56467 14.95527 3.03756 -47.33990 -6.02233 55.26756 -3.01038 -0.01251 -0.00411 0.01345 4.73086 -12.08851 35.87871 -8.46990 -3.08925 15.88768 59.85814 -64.32242 104.73652 -93.82462 65.38059 -69.49177 9.82343 8.20129 -7.32615 12.00132 2.83324 17.07901 66.56380 -22.61408 67.10334 26.92655 49.23208 113.30312 -5.38948 9.82421 -1.29402 15.20413 -53.17627 27.50378 22.93938 42.72962 -6.05776 -4.23245 -0.00147 -0.00125 -17.56950 -5.24634 1.24224 -19.11985 -56.13527 -15.91082 -51.37784 54.34931 66.01441 -26.55009 -0.00175 0.00784 30.45408 -40.44517 -2.01538 
